{"title":"Barter.Kings.S01E01.No.Cash.No.Problem.HDTV.x264-Sceper","uid":7354864,"size":207748046,"categoryP":"video","categoryS":"tv_shows","magnet":"?xt=urn:btih:66af1d5dc1dd4c1b8fa80dc79c545518918821b9&amp;dn=Barter.Kings.S01E01.No.Cash.No.Problem.HDTV.x264-Sceper&amp;tr=udp%3A%2F%2Ftracker.openbittorrent.com%3A80&amp;tr=udp%3A%2F%2Fopen.demonii.com%3A1337&amp;tr=udp%3A%2F%2Ftracker.coppersurfer.tk%3A6969&amp;tr=udp%3A%2F%2Fexodus.desync.com%3A6969","seeders":1,"leechers":0,"uploader":"nerdwin","files":-1,"time":1339727383,"description":"Barter Kings S01E01 - No Cash No Problem\n\nEntrepreneurs carry out strings of cashless trades in order to obtain items of increasingly greater value. In the series opener, a speedboat is desired by a trader who starts out with Elvis memorabilia, and a used laptop computer is bartered in an attempt to obtain a pickup truck.\n\n\nFormat                                   : MPEG-4\nFormat profile                           : Base Media / Version 2\nCodec ID                                 : mp42\nFile size                                : 198 MiB\nDuration                                 : 21mn 4s\nOverall bit rate mode                    : Variable\nOverall bit rate                         : 1 314 Kbps\n\nVideo\nID                                       : 2\nFormat                                   : AVC\nFormat/Info                              : Advanced Video Codec\nFormat profile                           : &lt;a class=&quot;__cf_email__&quot; href=&quot;/cdn-cgi/l/email-protection&quot; data-cfemail=&quot;80c8e9e7e8c0ccb3aeb1&quot;&gt;[email&amp;#160;protected]&lt;/a&gt;&lt;script cf-hash='f9e31' type=&quot;text/javascript&quot;&gt;\n/* &lt;![CDATA[ */!function(){try{var t=&quot;currentScript&quot;in document?document.currentScript:function(){for(var t=document.getElementsByTagName(&quot;script&quot;),e=t.length;e--;)if(t[e].getAttribute(&quot;cf-hash&quot;))return t[e]}();if(t&amp;&amp;t.previousSibling){var e,r,n,i,c=t.previousSibling,a=c.getAttribute(&quot;data-cfemail&quot;);if(a){for(e=&quot;&quot;,r=parseInt(a.substr(0,2),16),n=2;a.length-n;n+=2)i=parseInt(a.substr(n,2),16)^r,e+=String.fromCharCode(i);e=document.createTextNode(e),c.parentNode.replaceChild(e,c)}}}catch(u){}}();/* ]]&gt; */&lt;/script&gt;\nFormat settings, CABAC                   : Yes\nFormat settings, ReFrames                : 5 frames\nCodec ID                                 : avc1\nCodec ID/Info                            : Advanced Video Coding\nDuration                                 : 21mn 4s\nBit rate mode                            : Constant\nBit rate                                 : 1 197 Kbps / 1 197 Kbps\nWidth                                    : 720 pixels\nHeight                                   : 404 pixels\nDisplay aspect ratio                     : 16:9\nOriginal display aspect ratio            : 16:9\nFrame rate mode                          : Constant\nFrame rate                               : 59.940 fps\nStandard                                 : NTSC\nColor space                              : YUV\nChroma subsampling                       : 4:2:0\nBit depth                                : 8 bits\nScan type                                : Progressive\nBits/(Pixel*Frame)                       : 0.069\nStream size                              : 178 MiB (90%)\nWriting library                          : x264 core 114\n\nAudio\nID                                       : 1\nFormat                                   : AAC\nFormat/Info                              : Advanced Audio Codec\nFormat profile                           : LC\nCodec ID                                 : 40\nDuration                                 : 21mn 4s\nBit rate mode                            : Variable\nBit rate                                 : 128 Kbps\nMaximum bit rate                         : 576 Kbps\nChannel(s)                               : 2 channels\nChannel positions                        : Front: L R\nSampling rate                            : 48.0 KHz\nCompression mode                         : Lossy\nStream size                              : 19.3 MiB (10%)","torrent":{"xt":"urn:btih:66af1d5dc1dd4c1b8fa80dc79c545518918821b9","amp;dn":"Barter.Kings.S01E01.No.Cash.No.Problem.HDTV.x264-Sceper","amp;tr":["udp%3A%2F%2Ftracker.openbittorrent.com%3A80","udp%3A%2F%2Fopen.demonii.com%3A1337","udp%3A%2F%2Ftracker.coppersurfer.tk%3A6969","udp%3A%2F%2Fexodus.desync.com%3A6969"],"infoHash":"66af1d5dc1dd4c1b8fa80dc79c545518918821b9","infoHashBuffer":{"type":"Buffer","data":[102,175,29,93,193,221,76,27,143,168,13,199,156,84,85,24,145,136,33,185]},"announce":[],"urlList":[]}}